<svg width="500" height="500" version="1.1" xmlns="http://www.w3.org/2000/svg" desc="Created with imagetracer.js version 1.2.6" ><path fill="rgb(204,241,249)" stroke="rgb(204,241,249)" stroke-width="1" opacity="0.6745098039215687" d="M 67.5 200 L 72.5 201 L 73.5 200 L 92.5 200 L 95.5 201 L 98.5 200 Q 111.1 205.4 119 215.5 L 126 229.5 L 125 229.5 L 124.5 228 L 124 230.5 L 125.5 235 L 126.5 231 Q 129.6 237.4 128 248.5 L 127 248.5 L 126.5 235 L 126 249.5 L 127 253.5 Q 124.5 255 128 256.5 Q 132.9 263.1 131 276.5 Q 127.3 289.3 117.5 296 L 111.5 299 L 108.5 298 L 107.5 299 L 21.5 299 L 18.5 298 L 16.5 299 L 5 290.5 L 0 281.5 L 1 278.5 L 0 277.5 L 0 262.5 L 1 260.5 L 0 257.5 L 8 247.5 L 8 245.5 L 7 244.5 L 7 235.5 Q 10.2 222.2 20.5 216 Q 27.2 210.2 41.5 212 L 47.5 215 Q 54.9 204.9 67.5 200 Z M 97 201 L 97 202 L 99 202 L 97 201 Z M 65 202 L 65 203 L 67 203 L 65 202 Z M 78 207 L 78 208 L 88 209 Q 72 208 63 215 L 51 228 L 48 228 L 42 224 L 34 223 L 37 222 L 37 221 L 29 223 L 33 224 L 26 226 L 19 235 Q 17 244 21 249 L 20 252 L 16 253 L 18 254 L 17 254 L 10 263 L 8 276 L 10 275 L 12 282 Q 16 288 24 290 L 21 291 L 25 292 L 104 292 L 25 291 L 104 290 L 112 287 Q 119 283 120 273 L 121 277 L 122 273 L 122 268 L 121 272 L 119 264 L 114 256 L 116 250 L 116 235 L 110 222 Q 103 212 89 210 L 93 209 Q 87 206 78 207 Z M 74 208 L 74 209 L 77 209 L 74 208 Z M 71 209 L 71 210 L 73 210 L 71 209 Z M 94 209 L 94 210 L 96 210 L 94 209 Z M 68 210 L 68 211 L 70 211 L 68 210 Z M 30 213 L 30 214 L 42 214 L 30 213 Z M 27 214 L 27 215 L 29 215 L 27 214 Z M 43 214 L 43 215 L 45 215 L 43 214 Z M 38 222 L 38 223 L 42 223 L 38 222 Z M 124 225 L 123 228 L 124 228 L 124 225 Z M 48 226 L 48 227 L 51 227 L 48 226 Z M 10 231 L 9 235 L 10 235 L 10 231 Z M 118 234 L 117 250 L 118 250 L 118 234 Z M 9 235 L 8 245 L 9 245 L 9 235 Z M 18 235 L 17 245 L 18 245 L 18 235 Z M 19 245 L 18 248 L 19 248 L 19 245 Z M 117 250 L 116 254 L 117 254 L 117 250 Z M 126 250 L 125 254 L 126 254 L 126 250 Z M 129 260 L 128 263 L 129 263 L 129 260 Z M 9 263 L 8 266 L 9 266 L 9 263 Z M 121 263 L 120 268 L 121 268 L 121 263 Z M 130 263 L 129 277 L 130 277 L 130 263 Z M 8 266 L 7 274 L 8 274 L 8 266 Z M 129 277 L 128 280 L 129 280 L 129 277 Z M 105 290 L 105 291 L 108 291 L 105 290 Z " /><path fill="rgb(204,241,249)" stroke="rgb(204,241,249)" stroke-width="1" opacity="0.6745098039215687" d="M 208.5 236 L 216 236.5 L 208.5 237 L 208.5 236 Z " /><path fill="rgb(204,241,249)" stroke="rgb(204,241,249)" stroke-width="1" opacity="0.6745098039215687" d="M 340.5 236 L 348 236.5 L 340.5 237 L 340.5 236 Z " /><path fill="rgb(204,241,249)" stroke="rgb(204,241,249)" stroke-width="1" opacity="0.6745098039215687" d="M 205.5 238 L 206 289.5 L 205 289.5 L 205.5 238 Z " /><path fill="rgb(204,241,249)" stroke="rgb(204,241,249)" stroke-width="1" opacity="0.6745098039215687" d="M 207 238 L 215.5 238 L 216 238.5 L 216 291 L 207.5 291 L 207 290.5 L 207 238 Z " /><path fill="rgb(204,241,249)" stroke="rgb(204,241,249)" stroke-width="1" opacity="0.6745098039215687" d="M 337.5 238 L 338.5 255 L 339 238 L 347.5 238 L 348 238.5 L 348 291 L 340 291 L 340 288.5 L 339 288.5 Q 339.8 290.8 337.5 290 Q 335.3 293.7 328.5 293 L 328.5 292 L 333 291.5 L 321.5 291 L 321.5 292 L 326 292.5 L 321.5 293 Q 314 290 310 283.5 L 308 277.5 L 309 276.5 L 309 267.5 L 308 267.5 L 307.5 275 L 307 267.5 L 313 256 L 321.5 251 L 329.5 250 L 336.5 253 L 337.5 238 Z M 326 251 L 326 252 L 330 252 L 326 251 Z M 322 252 L 322 253 L 325 253 L 322 252 Z M 331 252 L 331 253 L 334 253 L 331 252 Z M 326 260 L 326 261 L 332 261 L 326 260 Z M 326 262 L 324 263 L 320 268 Q 319 275 321 279 L 326 282 L 334 281 L 337 277 Q 339 269 336 266 Q 334 261 326 262 Z M 310 264 L 309 267 L 310 267 L 310 264 Z M 319 269 L 318 275 L 319 275 L 319 269 Z M 339 269 L 338 275 L 339 275 L 339 269 Z M 310 277 L 309 280 L 310 280 L 310 277 Z M 326 283 L 326 284 L 332 284 L 326 283 Z " /><path fill="rgb(204,241,249)" stroke="rgb(204,241,249)" stroke-width="1" opacity="0.6745098039215687" d="M 349.5 238 L 350 289.5 L 349 289.5 L 349.5 238 Z " /><path fill="rgb(204,241,249)" stroke="rgb(204,241,249)" stroke-width="1" opacity="0.6745098039215687" d="M 217.5 239 L 218 289.5 L 217 289.5 L 217.5 239 Z " /><path fill="rgb(204,241,249)" stroke="rgb(204,241,249)" stroke-width="1" opacity="0.6745098039215687" d="M 483.5 242 L 490 242.5 L 483.5 243 L 483.5 242 Z " /><path fill="rgb(204,241,249)" stroke="rgb(204,241,249)" stroke-width="1" opacity="0.6745098039215687" d="M 483.5 244 Q 493.3 240.8 490 250.5 L 491 250.5 L 491.5 244 L 492 251 L 500 251.5 L 490 252.5 L 500 253 L 500 261 L 492.5 261 L 492.5 262 L 500 262.5 L 492 263 L 492 281 L 499.5 281 L 499.5 282 L 491 282.5 L 500 283 L 500 291 L 491.5 291 L 491.5 292 L 493 292.5 L 491.5 293 Q 484.9 292.1 482 287.5 L 480 283.5 L 480 263 L 476 262.5 L 480 261.5 L 475 259.5 Q 471.8 249.8 481.5 253 L 481.5 252 L 476 251.5 L 480 251 L 480.5 245 L 481.5 251 Q 480.6 245.6 483.5 244 Z M 482 263 L 481 284 L 482 284 L 482 263 Z M 491 263 L 490 279 L 491 279 L 491 263 Z M 488 290 L 488 291 L 491 291 L 488 290 Z " /><path fill="rgb(204,241,249)" stroke="rgb(204,241,249)" stroke-width="1" opacity="0.6745098039215687" d="M 180.5 250 Q 195.3 249.7 200 259.5 L 202 265.5 L 201 265.5 L 200.5 263 L 200 266 L 191.5 266 L 191 263.5 L 190 263.5 L 189.5 266 L 186.5 262 Q 178.5 260.5 176 264.5 L 174.5 270 L 173.5 268 L 172 272.5 L 173 272.5 L 173.5 271 Q 175.8 272.8 175 277.5 L 177.5 281 L 187.5 283 Q 185.9 281.3 189 279.5 L 189.5 278 L 198.5 278 L 200 277.5 L 200.5 280 L 201.5 278 L 202 279.5 Q 199.8 286.3 194.5 290 Q 191.7 293.7 184.5 293 L 184.5 292 L 189 291.5 L 176.5 291 L 176.5 292 L 182 292.5 L 176.5 293 Q 169 290 165 283.5 Q 160.2 278.3 162 266.5 Q 164.1 259.1 169.5 255 L 172.5 253 L 172.5 255 L 176 253.5 L 174 252.5 L 178.5 251 L 178.5 252 L 176 252.5 L 179.5 253 L 186 251.5 L 180.5 251 L 180.5 250 Z M 187 252 L 187 253 L 190 253 L 187 252 Z M 180 260 L 180 261 L 187 261 L 180 260 Z M 165 263 L 164 266 L 165 266 L 165 263 Z M 164 266 L 163 278 L 164 278 L 164 266 Z M 174 273 L 173 276 L 174 276 L 174 273 Z M 180 283 L 180 284 L 186 284 L 180 283 Z M 190 290 L 190 291 L 192 291 L 190 290 Z " /><path fill="rgb(204,241,249)" stroke="rgb(204,241,249)" stroke-width="1" opacity="0.6745098039215687" d="M 239.5 250 Q 254.3 249.7 259 259.5 Q 263 264.5 263 273.5 L 262 273.5 L 261.5 269 L 260 278.5 L 261 280.5 L 253.5 290 L 251.5 291 L 251.5 289 L 248 290.5 L 250 291.5 Q 248.3 293.8 243.5 293 L 243.5 292 L 248 291.5 L 233.5 290 L 233.5 291 L 235 291.5 L 233.5 292 L 231.5 288 L 230 288.5 L 230.5 290 Q 223.6 286.4 222 277.5 L 223 277.5 L 223.5 280 L 224 276.5 L 222.5 268 L 221.5 276 L 221 268.5 Q 223.3 257.8 231.5 253 L 239.5 250 Z M 240 251 L 240 252 L 245 252 L 240 251 Z M 236 252 L 236 253 L 239 253 L 236 252 Z M 246 252 L 246 253 L 249 253 L 246 252 Z M 239 260 L 239 261 L 246 261 L 239 260 Z M 239 262 L 237 263 L 234 268 Q 232 279 238 282 L 237 282 L 237 283 L 247 281 L 250 276 Q 248 269 251 268 L 249 267 L 248 263 Q 245 261 239 262 Z M 224 264 L 223 268 L 224 268 L 224 264 Z M 261 265 L 260 269 L 261 269 L 261 265 Z M 233 267 L 232 275 L 233 275 L 233 267 Z M 252 268 L 251 276 L 252 276 L 252 268 Z M 240 283 L 240 284 L 245 284 L 240 283 Z " /><path fill="rgb(204,241,249)" stroke="rgb(204,241,249)" stroke-width="1" opacity="0.6745098039215687" d="M 374.5 250 L 378 250.5 L 374 251.5 L 383.5 254 L 382.5 252 L 379 251.5 L 382.5 251 L 390 257.5 L 391 259.5 L 390 263.5 L 391 263.5 L 391.5 261 L 393 264.5 L 393 289.5 L 392 289.5 L 391.5 264 L 391 291 L 382 291 L 382 266.5 L 381 266.5 L 380.5 290 L 380 264.5 L 377.5 262 Q 370.3 260.8 368 264.5 L 367 266.5 L 366.5 290 L 365.5 267 L 365 291 L 356.5 291 L 356 290.5 L 356 253 L 364 253 L 364 255.5 L 365 255.5 L 365.5 253 L 368 253.5 L 367.5 255 L 370 253.5 Q 367.8 252.2 370.5 251 L 374.5 250 Z M 371 252 L 371 253 L 374 253 L 371 252 Z M 372 260 L 372 261 L 378 261 L 372 260 Z " /><path fill="rgb(204,241,249)" stroke="rgb(204,241,249)" stroke-width="1" opacity="0.6745098039215687" d="M 414.5 250 Q 428 250.5 433 259.5 Q 437.1 264 436 273.5 L 435 273.5 L 434.5 266 L 434 274 L 406 274.5 L 434 275.5 L 408 276.5 L 410 281 Q 412.7 282.9 419.5 282 L 422 281 L 422.5 279 L 433 279 L 433.5 281 L 434.5 279 L 435 280.5 L 427.5 290 Q 424.7 293.7 417.5 293 L 417.5 292 L 422 291.5 L 410.5 291 L 410.5 292 L 415 292.5 L 410.5 293 Q 403.1 290.4 399 284.5 Q 393.8 278.7 396 265.5 Q 398.6 258.1 404.5 254 Q 406.4 250.4 412.5 251 Q 413.8 253.2 418.5 252 L 418.5 251 Q 413.5 252 414.5 250 Z M 410 252 L 410 253 L 413 253 L 410 252 Z M 420 252 L 420 253 L 423 253 L 420 252 Z M 413 260 L 413 261 L 421 261 L 413 260 Z M 411 261 L 411 263 L 409 266 L 423 266 L 423 265 L 421 262 Q 414 263 411 261 Z M 398 265 L 397 279 L 398 279 L 398 265 Z M 407 267 L 407 268 L 426 268 L 407 267 Z M 413 283 L 413 284 L 420 284 L 413 283 Z M 408 290 L 408 291 L 410 291 L 408 290 Z M 423 290 L 423 291 L 425 291 L 423 290 Z " /><path fill="rgb(204,241,249)" stroke="rgb(204,241,249)" stroke-width="1" opacity="0.6745098039215687" d="M 452.5 250 L 461 251.5 L 457 252.5 L 464.5 255 L 464.5 253 Q 470.6 255.4 471 263.5 L 470 263.5 L 469.5 260 L 469 265 L 461 265 L 461 262.5 L 460 262.5 L 459.5 264 L 459 262 L 451 262 L 451 265 L 461.5 267 Q 463 264.5 468.5 266 L 468.5 267 L 463 267.5 L 471 273.5 L 472 276.5 L 471 281.5 L 472 283.5 L 465.5 291 L 465.5 289 L 462 290.5 L 464 291.5 Q 462.3 293.8 457.5 293 L 457.5 292 L 462 291.5 L 449.5 291 L 449.5 292 L 454 292.5 L 449.5 293 L 440 286.5 L 437 278.5 L 438 278.5 L 438.5 281 L 439 278 Q 446.6 276.9 450 279 L 451.5 282 L 460 282 L 460 278 L 453 276.5 L 457 275.5 L 449.5 274 L 449.5 275 L 452 275.5 L 449.5 276 L 440 269.5 L 439 266.5 L 440 266.5 L 440.5 268 L 441 265.5 L 439.5 262 L 438.5 265 L 438 262.5 L 443.5 254 L 452.5 250 Z M 453 251 L 453 252 L 457 252 L 453 251 Z M 449 252 L 449 253 L 452 253 L 449 252 Z M 441 259 L 440 262 L 441 262 L 441 259 Z M 451 260 L 451 261 L 459 261 L 451 260 Z M 453 266 L 453 267 L 455 267 L 453 266 Z M 456 267 L 456 268 L 459 268 L 456 267 Z M 460 268 L 460 269 L 463 269 L 460 268 Z M 447 273 L 447 274 L 449 274 L 447 273 Z M 458 276 L 458 277 L 460 277 L 458 276 Z M 452 283 L 452 284 L 460 284 L 452 283 Z M 447 290 L 447 291 L 449 291 L 447 290 Z " /><path fill="rgb(204,241,249)" stroke="rgb(204,241,249)" stroke-width="1" opacity="0.6745098039215687" d="M 268.5 251 L 276 251.5 L 268.5 252 L 268.5 251 Z " /><path fill="rgb(204,241,249)" stroke="rgb(204,241,249)" stroke-width="1" opacity="0.6745098039215687" d="M 294.5 251 L 301 251.5 L 294.5 252 L 294.5 251 Z " /><path fill="rgb(204,241,249)" stroke="rgb(204,241,249)" stroke-width="1" opacity="0.6745098039215687" d="M 357.5 251 L 364 251.5 L 357.5 252 L 357.5 251 Z " /><path fill="rgb(204,241,249)" stroke="rgb(204,241,249)" stroke-width="1" opacity="0.6745098039215687" d="M 267 253 L 276 253 L 276 276.5 L 277 276.5 L 277.5 253 L 278 278.5 L 280.5 282 L 288.5 283 Q 286.9 281.3 290 279.5 L 291 277.5 L 291.5 254 L 292.5 276 L 293 253 L 301.5 253 L 302 253.5 L 302 291 L 294 291 L 294 288.5 L 293 288.5 Q 293.8 290.8 291.5 290 Q 289.9 293.9 283.5 293 L 283.5 292 L 288 291.5 L 276.5 291 L 276.5 292 L 281 292.5 L 276.5 293 L 269 287.5 L 266 282.5 L 265 277.5 L 265 254.5 L 266 254.5 L 266.5 278 L 267 253 Z M 268 278 L 267 283 L 268 283 L 268 278 Z M 281 283 L 281 284 L 287 284 L 281 283 Z " /><path fill="rgb(204,241,249)" stroke="rgb(204,241,249)" stroke-width="1" opacity="0.6745098039215687" d="M 303.5 254 L 304 289.5 L 303 289.5 L 303.5 254 Z " /><path fill="rgb(204,241,249)" stroke="rgb(204,241,249)" stroke-width="1" opacity="0.6745098039215687" d="M 354.5 254 L 355 289.5 L 354 289.5 L 354.5 254 Z " /><path fill="rgb(204,241,249)" stroke="rgb(204,241,249)" stroke-width="1" opacity="0.6745098039215687" d="M 473.5 254 L 474 259.5 L 473 259.5 L 473.5 254 Z " /><path fill="rgb(204,241,249)" stroke="rgb(204,241,249)" stroke-width="1" opacity="0.6745098039215687" d="M 191.5 267 L 200 267.5 L 191.5 268 L 191.5 267 Z " /><path fill="rgb(204,241,249)" stroke="rgb(204,241,249)" stroke-width="1" opacity="0.6745098039215687" d="M 261.5 275 L 262 277.5 L 261 277.5 L 261.5 275 Z " /><path fill="rgb(204,241,249)" stroke="rgb(204,241,249)" stroke-width="1" opacity="0.6745098039215687" d="M 439.5 276 L 447 276.5 L 439.5 277 L 439.5 276 Z " /><path fill="rgb(204,241,249)" stroke="rgb(204,241,249)" stroke-width="1" opacity="0.6745098039215687" d="M 424.5 277 L 432 277.5 L 424.5 278 L 424.5 277 Z " /><path fill="rgb(204,241,249)" stroke="rgb(204,241,249)" stroke-width="1" opacity="0.6745098039215687" d="M 472.5 278 L 473 280.5 L 472 280.5 L 472.5 278 Z " /><path fill="rgb(204,241,249)" stroke="rgb(204,241,249)" stroke-width="1" opacity="0.6745098039215687" d="M 236.5 292 L 241 292.5 L 236.5 293 L 236.5 292 Z " /><path fill="rgb(204,241,249)" stroke="rgb(204,241,249)" stroke-width="1" opacity="0.6745098039215687" d="M 295.5 292 L 301 292.5 L 295.5 293 L 295.5 292 Z " /><path fill="rgb(204,241,249)" stroke="rgb(204,241,249)" stroke-width="1" opacity="0.6745098039215687" d="M 341.5 292 L 347 292.5 L 341.5 293 L 341.5 292 Z " /><path fill="rgb(0,0,0)" stroke="rgb(0,0,0)" stroke-width="1" opacity="0" d="M 0 0 L 500 0 L 500 251 L 492 251 L 492 244.5 L 491 244.5 L 490.5 251 L 490 244 L 483.5 244 L 482 245.5 L 481.5 251 L 480.5 245 L 480 251 L 476 251.5 L 482 252.5 L 475 253 Q 473.3 259.1 476.5 261 L 480 261.5 L 476 262.5 L 480 263 L 480.5 284 L 481.5 263 L 482 283.5 L 484 286.5 L 482 286.5 L 484.5 290 L 486 289.5 L 485.5 288 Q 490.3 292.3 500 291.5 L 498 292.5 L 500 293 L 500 500 L 0 500 L 0 283.5 L 1 281.5 L 0 278.5 L 1 278.5 L 4 285.5 L 2 285.5 L 3.5 288 L 4.5 287 L 12.5 295 L 21.5 299 L 107.5 299 Q 117.7 295.8 123.5 288 Q 124.8 290.3 126 287.5 L 125.5 286 L 124 286.5 L 128 284.5 L 129 280.5 L 128 277.5 L 129 276.5 L 129 263.5 L 125 255.5 L 125 253.5 Q 127.4 246.4 126 235.5 L 122 224.5 L 124 224.5 L 122.5 222 L 121 222.5 L 122 220.5 L 119 219.5 L 117 216.5 L 119 216.5 L 117.5 214 L 116.5 215 L 110.5 209 L 92.5 200 L 73.5 200 Q 56.3 204.3 47.5 217 Q 42 212 29.5 214 Q 18.9 216.9 13.5 225 Q 12.3 222.7 11 225.5 L 10 228.5 L 12 228.5 Q 7.6 233.7 9 244.5 L 9.5 246 L 8 245.5 L 8.5 248 L 10 247.5 L 5.5 252 Q 4.3 249.8 3 252.5 L 3.5 254 L 5 253.5 L 1 255.5 L 0.5 257 L 0 0 Z M 97 200 L 97 201 L 99 201 L 97 200 Z M 65 201 L 65 202 L 67 202 L 65 201 Z M 30 212 L 30 213 L 42 213 L 30 212 Z M 27 213 L 27 214 L 29 214 L 27 213 Z M 43 213 L 43 214 L 45 214 L 43 213 Z M 125 225 L 124 228 L 125 228 L 125 225 Z M 9 231 L 8 235 L 9 235 L 9 231 Z M 127 231 L 126 235 L 127 235 L 127 231 Z M 8 235 L 7 245 L 8 245 L 8 235 Z M 128 235 L 127 249 L 128 249 L 128 235 Z M 209 236 L 209 237 L 216 237 L 209 236 Z M 341 236 L 341 237 L 348 237 L 341 236 Z M 206 238 L 205 290 L 206 290 L 206 238 Z M 207 238 L 207 291 L 208 291 L 216 291 L 216 239 L 216 238 L 207 238 Z M 338 238 L 337 253 L 336 254 L 338 255 L 338 238 Z M 339 238 L 339 255 L 339 257 L 336 254 L 330 252 Q 322 252 318 255 L 313 260 L 312 259 L 310 262 L 312 262 L 309 268 Q 308 278 312 283 L 311 282 L 310 284 Q 311 286 313 284 L 322 291 Q 335 293 340 286 L 340 289 L 340 291 L 348 291 L 348 239 L 348 238 L 339 238 Z M 350 238 L 349 290 L 350 290 L 350 238 Z M 218 239 L 217 290 L 218 290 L 218 239 Z M 484 242 L 484 243 L 490 243 L 484 242 Z M 127 250 L 126 254 L 127 254 L 127 250 Z M 181 250 L 181 251 L 186 251 L 181 250 Z M 240 250 L 240 251 L 245 251 L 240 250 Z M 326 250 L 326 251 L 330 251 L 326 250 Z M 375 250 L 375 251 L 378 251 L 375 250 Z M 415 250 L 415 251 L 419 251 L 415 250 Z M 453 250 L 453 251 L 457 251 L 453 250 Z M 177 251 L 177 252 L 179 252 L 177 251 Z M 187 251 L 187 252 L 190 252 L 187 251 Z M 236 251 L 236 252 L 239 252 L 236 251 Z M 246 251 L 246 252 L 249 252 L 246 251 Z M 269 251 L 269 252 L 276 252 L 269 251 Z M 295 251 L 295 252 L 301 252 L 295 251 Z M 322 251 L 322 252 L 325 252 L 322 251 Z M 331 251 L 331 252 L 334 252 L 331 251 Z M 358 251 L 358 252 L 364 252 L 358 251 Z M 371 251 L 371 252 L 374 252 L 371 251 Z M 380 251 L 380 252 L 383 252 L 380 251 Z M 410 251 L 410 252 L 413 252 L 410 251 Z M 420 251 L 420 252 L 423 252 L 420 251 Z M 449 251 L 449 252 L 452 252 L 449 251 Z M 458 251 L 458 252 L 461 252 L 458 251 Z M 181 252 L 171 257 L 171 256 L 170 255 L 166 260 L 168 260 Q 167 262 166 260 L 164 263 L 166 263 L 164 267 L 164 278 L 165 279 L 164 282 L 166 282 L 165 284 L 167 283 L 177 291 Q 189 293 195 288 Q 196 284 198 287 L 199 285 L 197 285 L 201 283 L 200 278 L 199 278 L 190 278 L 189 280 Q 185 281 188 283 L 186 284 Q 176 285 174 280 L 176 280 L 175 273 L 174 276 L 172 273 L 174 268 L 175 270 L 176 265 L 174 265 L 180 260 Q 189 258 191 264 L 192 266 L 200 266 L 198 261 L 200 261 L 200 260 Q 199 257 198 259 Q 193 252 181 252 Z M 240 252 L 232 255 L 227 260 L 226 259 L 224 262 L 226 262 L 223 269 Q 222 277 225 281 L 224 284 Q 225 286 227 284 L 237 291 Q 248 293 254 288 L 257 285 L 258 286 L 259 284 L 257 284 L 260 283 L 259 281 L 261 274 Q 262 267 259 265 L 260 263 L 261 265 L 261 263 L 258 262 L 259 260 Q 258 257 257 259 Q 252 252 240 252 Z M 375 252 Q 367 253 365 258 L 364 256 L 364 253 L 356 253 L 356 291 L 357 291 L 365 291 L 366 267 L 367 290 L 367 267 L 368 265 L 366 265 L 372 260 Q 379 259 381 263 L 380 262 L 378 263 L 380 265 L 381 290 L 381 267 L 382 267 L 382 291 L 391 291 L 391 265 L 388 259 L 390 259 L 390 258 Q 389 255 388 257 Q 383 252 375 252 Z M 414 252 L 405 256 L 402 259 L 401 258 L 399 261 L 401 261 L 398 262 L 399 264 L 398 266 L 398 279 L 401 284 L 400 283 L 399 285 Q 400 287 402 285 L 411 291 Q 422 293 428 288 Q 429 284 431 287 L 432 285 L 430 285 L 433 284 L 432 282 L 433 279 L 423 279 L 422 281 L 424 281 L 420 284 Q 410 286 408 281 L 410 281 L 409 277 L 408 279 L 406 277 L 408 277 L 409 276 L 434 276 L 406 275 L 434 274 L 434 267 L 435 266 L 435 263 L 434 265 L 431 261 L 433 261 L 433 260 Q 432 257 431 259 Q 426 252 414 252 Z M 453 252 L 445 256 L 443 255 L 441 258 L 443 258 L 440 263 L 442 269 L 441 268 L 440 270 Q 441 272 443 270 L 447 273 L 460 276 L 462 279 L 461 278 L 460 282 L 462 281 L 460 284 Q 450 286 448 281 L 450 281 L 450 279 Q 447 277 439 278 L 438 284 L 442 286 L 441 285 L 440 287 L 445 290 L 445 288 L 450 291 Q 460 293 466 289 Q 468 284 471 286 L 470 284 L 471 282 L 470 277 L 471 274 L 470 274 L 463 269 L 452 267 L 455 266 L 452 265 Q 450 267 449 265 L 451 265 L 452 262 L 459 262 L 459 261 L 451 261 L 450 262 L 451 260 Q 459 258 461 263 L 461 265 L 469 265 L 468 260 L 470 260 L 470 259 Q 469 256 468 258 Q 463 252 453 252 Z M 267 253 L 267 278 L 269 284 L 268 283 L 267 285 L 271 287 L 270 286 L 269 288 L 273 290 L 273 288 L 277 291 Q 290 294 294 286 L 294 289 L 294 291 L 302 291 L 302 254 L 302 253 L 293 253 L 293 276 L 292 254 L 291 278 L 289 281 L 291 282 L 287 284 Q 279 286 277 281 L 279 281 L 278 279 L 278 253 L 277 277 L 276 277 L 276 253 L 267 253 Z M 366 253 L 366 256 Q 369 255 366 253 Z M 266 254 L 265 278 L 266 278 L 266 254 Z M 304 254 L 303 290 L 304 290 L 304 254 Z M 355 254 L 354 290 L 355 290 L 355 254 Z M 474 254 L 473 260 L 474 260 L 474 254 Z M 313 256 L 313 258 L 315 257 L 313 256 Z M 440 259 L 439 262 L 440 262 L 440 259 Z M 130 260 L 129 263 L 130 263 L 130 260 Z M 471 260 L 470 264 L 471 264 L 471 260 Z M 180 261 L 180 262 L 187 262 L 180 261 Z M 372 261 L 372 262 L 378 262 L 372 261 Z M 392 261 L 391 264 L 392 264 L 392 261 Z M 188 262 L 190 266 L 190 264 L 188 262 Z M 439 262 L 438 265 L 439 265 L 439 262 Z M 131 263 L 130 277 L 131 277 L 131 263 Z M 164 263 L 163 266 L 164 266 L 164 263 Z M 202 263 L 201 266 L 202 266 L 202 263 Z M 223 264 L 222 268 L 223 268 L 223 264 Z M 309 264 L 308 267 L 309 267 L 309 264 Z M 393 264 L 392 290 L 393 290 L 393 264 Z M 262 265 L 261 269 L 262 269 L 262 265 Z M 397 265 L 396 279 L 397 279 L 397 265 Z M 163 266 L 162 278 L 163 278 L 163 266 Z M 436 266 L 435 274 L 436 274 L 436 266 Z M 456 266 L 456 267 L 459 267 L 456 266 Z M 463 266 L 460 267 L 460 268 L 469 267 L 463 266 Z M 192 267 L 192 268 L 200 268 L 192 267 Z M 308 267 L 307 275 L 308 275 L 308 267 Z M 222 268 L 221 276 L 222 276 L 222 268 Z M 263 269 L 262 274 L 263 274 L 263 269 Z M 447 274 L 447 275 L 449 275 L 447 274 Z M 262 275 L 261 278 L 262 278 L 262 275 Z M 450 275 L 450 276 L 452 276 L 450 275 Z M 440 276 L 440 277 L 447 277 L 440 276 Z M 454 276 L 454 277 L 457 277 L 454 276 Z M 130 277 L 129 280 L 130 280 L 130 277 Z M 223 277 L 222 280 L 223 280 L 223 277 Z M 309 277 L 308 280 L 309 280 L 309 277 Z M 425 277 L 425 278 L 432 278 L 425 277 Z M 458 277 L 458 278 L 460 278 L 458 277 Z M 267 278 L 266 283 L 267 283 L 267 278 Z M 438 278 L 437 281 L 438 281 L 438 278 Z M 473 278 L 472 281 L 473 281 L 473 278 Z M 180 282 L 180 283 L 186 283 L 180 282 Z M 281 282 L 281 283 L 287 283 L 281 282 Z M 413 282 L 413 283 L 420 283 L 413 282 Z M 452 282 L 452 283 L 460 283 L 452 282 Z M 293 288 L 291 290 L 293 290 L 293 288 Z M 339 288 L 337 290 L 339 290 L 339 288 Z M 6 289 L 5 291 L 9 293 L 6 289 Z M 190 291 L 190 292 L 192 292 L 190 291 Z M 408 291 L 408 292 L 410 292 L 408 291 Z M 423 291 L 423 292 L 425 292 L 423 291 Z M 447 291 L 447 292 L 449 292 L 447 291 Z M 488 291 L 488 292 L 491 292 L 488 291 Z M 177 292 L 177 293 L 182 293 L 177 292 Z M 185 292 L 185 293 L 189 293 L 185 292 Z M 237 292 L 237 293 L 241 293 L 237 292 Z M 244 292 L 244 293 L 248 293 L 244 292 Z M 277 292 L 277 293 L 281 293 L 277 292 Z M 284 292 L 284 293 L 288 293 L 284 292 Z M 296 292 L 296 293 L 301 293 L 296 292 Z M 322 292 L 322 293 L 326 293 L 322 292 Z M 329 292 L 329 293 L 333 293 L 329 292 Z M 342 292 L 342 293 L 347 293 L 342 292 Z M 411 292 L 411 293 L 415 293 L 411 292 Z M 418 292 L 418 293 L 422 293 L 418 292 Z M 450 292 L 450 293 L 454 293 L 450 292 Z M 458 292 L 458 293 L 462 293 L 458 292 Z " /><path fill="rgb(0,0,0)" stroke="rgb(0,0,0)" stroke-width="1" opacity="0" d="M 77.5 207 Q 94.8 205.8 103 213.5 Q 100.8 214.7 103.5 216 L 105 215.5 L 104.5 214 L 111.5 222 L 110 221.5 L 111.5 224 Q 112.8 221.8 114 224.5 L 115 226.5 L 113 226.5 L 114.5 231 Q 115.8 228.8 117 231.5 L 115 231.5 L 115.5 234 Q 116.8 231.8 118 234.5 L 118 249.5 L 115.5 255 L 114 254.5 L 115.5 257 L 117 256.5 L 116 258.5 L 119 259.5 L 117 259.5 L 119.5 268 L 120.5 263 L 122 272.5 L 119.5 278 L 118 277.5 L 118.5 280 L 120 279.5 L 111.5 289 L 103.5 292 L 24.5 292 L 16 287.5 L 17 286.5 L 12.5 282 Q 11.3 284.3 10 281.5 L 12 281.5 L 9.5 275 L 8 275.5 L 7 266.5 L 8.5 263 L 9.5 266 L 11 260.5 L 9 260.5 L 13 258.5 L 12.5 257 L 11 257.5 L 16.5 252 L 20 252 L 19.5 250 L 18 250.5 L 19 248.5 Q 15.5 244.5 17 235.5 L 18 235.5 L 18.5 245 L 19 234.5 L 21 230.5 L 19 230.5 Q 20.3 227.8 21.5 230 L 25 226.5 Q 22.7 225.3 25.5 224 Q 29.5 221 36.5 221 L 41.5 222 L 47.5 226 L 50.5 226 L 55 223.5 L 54.5 222 L 53 222.5 L 60 217.5 L 58.5 217 L 57 217.5 Q 64.4 209.4 77.5 207 Z M 78 208 L 78 209 L 88 209 L 78 208 Z M 74 209 L 74 210 L 77 210 L 74 209 Z M 90 209 L 90 210 L 93 210 L 90 209 Z M 71 210 L 71 211 L 73 211 L 71 210 Z M 94 210 L 94 211 L 96 211 L 94 210 Z M 68 211 L 68 212 L 70 212 L 68 211 Z M 35 222 L 35 223 L 37 223 L 35 222 Z M 30 223 L 30 224 L 33 224 L 30 223 Z M 38 223 L 38 224 L 42 224 L 38 223 Z M 48 227 L 48 228 L 51 228 L 48 227 Z M 117 234 L 116 250 L 117 250 L 117 234 Z M 20 245 L 19 248 L 20 248 L 20 245 Z M 116 250 L 115 254 L 116 254 L 116 250 Z M 9 266 L 8 274 L 9 274 L 9 266 Z M 121 268 L 120 272 L 121 272 L 121 268 Z M 120 273 L 119 277 L 120 277 L 120 273 Z M 118 280 L 116 283 L 118 282 L 118 280 Z M 22 289 L 22 290 L 24 290 L 22 289 Z M 105 289 L 105 290 L 108 290 L 105 289 Z M 26 290 L 26 291 L 104 291 L 26 290 Z " /><path fill="rgb(0,0,0)" stroke="rgb(0,0,0)" stroke-width="1" opacity="0" d="M 22.5 226 L 21.5 228 L 22.5 226 Z " /><path fill="rgb(0,0,0)" stroke="rgb(0,0,0)" stroke-width="1" opacity="0" d="M 490.5 252 L 500 252.5 L 490.5 253 L 490.5 252 Z " /><path fill="rgb(0,0,0)" stroke="rgb(0,0,0)" stroke-width="1" opacity="0" d="M 238.5 260 Q 247.5 258.5 250 263.5 L 248 263.5 L 249 267 L 252 268.5 Q 253.7 275.3 250.5 277 L 249 276.5 L 249.5 279 L 251 278.5 L 247 280.5 L 249 281.5 Q 246.4 284.9 239.5 284 L 234 280.5 L 236.5 282 L 238 281.5 L 234 276.5 L 233.5 267 L 232.5 275 L 232 267.5 L 233.5 265 L 234.5 267 L 235 264.5 Q 232.2 262.8 236.5 261 L 238.5 260 Z M 239 261 L 239 262 L 246 262 L 239 261 Z M 251 268 L 250 276 L 251 276 L 251 268 Z M 240 282 L 240 283 L 245 283 L 240 282 Z " /><path fill="rgb(0,0,0)" stroke="rgb(0,0,0)" stroke-width="1" opacity="0" d="M 325.5 260 Q 334.2 258.8 337 263.5 L 335.5 263 L 334 263.5 Q 338.9 266.6 337 276.5 L 334 280.5 L 335.5 281 L 337 280.5 Q 334.2 285.2 325.5 284 L 320 280.5 L 321.5 281 L 323 280.5 Q 318.1 277.4 320 267.5 L 323 263.5 L 321.5 263 L 320 263.5 L 325.5 260 Z M 326 261 L 326 262 L 332 262 L 326 261 Z M 326 282 L 326 283 L 332 283 L 326 282 Z " /><path fill="rgb(0,0,0)" stroke="rgb(0,0,0)" stroke-width="1" opacity="0" d="M 412.5 260 Q 423 258 425 264.5 L 423 264.5 L 422.5 266 L 409 266 L 408.5 264 L 407 264.5 L 412.5 260 Z M 413 261 L 413 262 L 421 262 L 413 261 Z " /><path fill="rgb(0,0,0)" stroke="rgb(0,0,0)" stroke-width="1" opacity="0" d="M 492.5 261 L 500 261.5 L 492.5 262 L 492.5 261 Z " /><path fill="rgb(0,0,0)" stroke="rgb(0,0,0)" stroke-width="1" opacity="0" d="M 490.5 263 L 491 278.5 L 490 278.5 L 490.5 263 Z " /><path fill="rgb(0,0,0)" stroke="rgb(0,0,0)" stroke-width="1" opacity="0" d="M 492 263 L 500 263 L 500 281 L 492 281 L 492 263 Z " /><path fill="rgb(0,0,0)" stroke="rgb(0,0,0)" stroke-width="1" opacity="0" d="M 406.5 267 L 426 267.5 L 406.5 268 L 406.5 267 Z " /><path fill="rgb(0,0,0)" stroke="rgb(0,0,0)" stroke-width="1" opacity="0" d="M 318.5 269 L 319 274.5 L 318 274.5 L 318.5 269 Z " /><path fill="rgb(0,0,0)" stroke="rgb(0,0,0)" stroke-width="1" opacity="0" d="M 338.5 269 L 339 274.5 L 338 274.5 L 338.5 269 Z " /><path fill="rgb(0,0,0)" stroke="rgb(0,0,0)" stroke-width="1" opacity="0" d="M 491.5 282 L 500 282.5 L 491.5 283 L 491.5 282 Z " /><path fill="rgb(0,0,0)" stroke="rgb(0,0,0)" stroke-width="1" opacity="0" d="M 12.5 284 L 14.5 287 L 12.5 284 Z " /></svg>